<svg width="512" height="512" viewBox="0 0 512 512" fill="none" xmlns="http://www.w3.org/2000/svg">
<path d="M210.134 149.937C163.61 166.9 145.206 175.362 102.917 195.22C93.9712 191.963 142.741 38.3844 165.153 39.7518C187.565 41.1192 212.946 147.107 210.134 149.937Z" fill="white"/>
<path d="M167.057 367.273C177.151 375.906 189.253 389.067 198.096 400.338C207.082 411.791 212.703 421.293 209.433 422.111C208.446 421.562 201.512 416.56 191.542 409.234C159.79 385.899 97.2513 338.979 98.037 337.183C99.0693 334.823 146.705 349.868 167.057 367.273Z" fill="white"/>
<path d="M246.341 412.698L246.266 413.229C244.644 424.734 246.266 440.531 254.525 440.531L254.525 366.999C252.783 366.999 248.033 400.694 246.341 412.698Z" fill="#CF8B06"/>
<path d="M150.678 241.782C155.1 231.869 161.706 223.084 170.003 216.085C173.977 212.733 178.292 209.85 182.849 207.463C163.36 235.618 158.514 248.314 159.251 272.236C159.982 295.968 161.866 306.114 185.362 336.036C181.198 334.058 177.213 331.674 173.477 328.898C164.765 322.423 157.631 314.061 152.607 304.438C147.583 294.816 144.8 284.182 144.466 273.331C144.132 262.481 146.255 251.696 150.678 241.782Z" fill="#CF8B06"/>
<path fill-rule="evenodd" clip-rule="evenodd" d="M210.134 149.937C163.61 166.9 145.206 175.362 102.917 195.22C93.9712 191.963 142.741 38.3844 165.153 39.7518C187.565 41.1192 212.946 147.107 210.134 149.937ZM198.096 400.338C189.253 389.067 177.151 375.906 167.057 367.273C146.705 349.868 99.0693 334.823 98.037 337.183C97.2513 338.979 159.79 385.899 191.542 409.234C201.512 416.56 208.446 421.562 209.433 422.111C212.703 421.293 207.082 411.791 198.096 400.338Z" fill="black"/>
<path d="M95.0395 320.482C81.7773 314.293 81.1878 328.44 86.198 336.692C89.9805 342.922 158.292 387.675 191.542 409.234C159.79 385.899 97.2513 338.979 98.037 337.183C99.0693 334.823 146.705 349.868 167.057 367.273C177.151 375.906 189.253 389.067 198.096 400.338C170.246 358.109 148.763 349.403 112.575 336.692C104.946 333.297 101.936 328.813 99.5967 325.329C98.136 323.153 96.9373 321.368 95.0395 320.482Z" fill="#CF8B06"/>
<path d="M234.458 507.273C221.517 501.371 216.383 490.684 209.902 477.192C196.638 449.58 177.73 410.22 74.7037 376.088L69 398.681C69.7438 398.862 70.4834 399.043 71.2189 399.225C216.746 435.265 199.145 497.892 232.552 509.342C236.547 511.116 244.652 512 254.525 512V509.204C246.567 509.204 239.7 509.001 234.458 507.273Z" fill="#CF8B06"/>
<path fill-rule="evenodd" clip-rule="evenodd" d="M167.22 5.89644C167.58 5.8764 168.281 6.00426 169.408 6.76912C170.52 7.52412 171.821 8.74996 173.288 10.4986C176.221 13.9926 179.483 19.1654 182.936 25.5864C189.826 38.3973 197.209 55.6632 204.008 73.0659C210.799 90.4464 216.972 107.872 221.45 120.959C223.689 127.5 225.502 132.954 226.755 136.771C227.41 138.765 228.06 140.76 228.699 142.759C229.284 144.598 231.099 145.029 232.761 144.574C233.63 144.336 235.818 143.77 238.896 143.203C243.008 142.445 248.298 141.54 254.525 141.54V366.999C252.783 366.999 248.033 400.694 246.341 412.698L246.266 413.229C244.644 424.734 246.266 440.531 254.525 440.531V477.813C254.525 477.813 234.926 477.792 234.926 481.939C234.926 492.254 248.483 502.127 254.525 502.127V509.204C246.567 509.204 239.7 509.001 234.458 507.273C221.517 501.371 216.383 490.684 209.902 477.192C196.638 449.58 177.73 410.22 74.7037 376.088C78.3956 347.392 79.333 316.36 79.7022 287.546C79.7958 280.242 79.8531 273.089 79.9087 266.154L79.9087 266.153L79.9087 266.152L79.9087 266.151C80.1123 240.75 80.2925 218.279 82.1441 202.03C85.831 169.676 102.66 120.6 121.159 79.3377C130.393 58.7395 139.985 40.2207 148.468 26.8239C152.716 20.1148 156.629 14.7817 160.027 11.1274C161.727 9.29935 163.232 7.96255 164.523 7.0868C165.847 6.18911 166.728 5.92389 167.22 5.89644ZM102.917 195.22C145.206 175.362 163.61 166.9 210.134 149.937C212.946 147.107 187.565 41.1192 165.153 39.7518C142.741 38.3844 93.9712 191.963 102.917 195.22ZM95.0395 320.482C81.7773 314.293 81.1878 328.44 86.198 336.692C89.9805 342.922 158.292 387.675 191.542 409.234C201.512 416.56 208.446 421.562 209.433 422.111C212.703 421.293 207.082 411.791 198.096 400.338C170.246 358.109 148.763 349.403 112.575 336.692C104.946 333.297 101.936 328.813 99.5967 325.329C98.136 323.153 96.9373 321.368 95.0395 320.482ZM150.678 241.782C155.1 231.869 161.706 223.084 170.003 216.085C173.977 212.733 178.292 209.85 182.849 207.463C163.36 235.618 158.514 248.314 159.251 272.236C159.982 295.968 161.866 306.114 185.362 336.036C181.198 334.058 177.213 331.674 173.477 328.898C164.765 322.423 157.631 314.061 152.607 304.438C147.583 294.816 144.8 284.182 144.466 273.331C144.132 262.481 146.255 251.696 150.678 241.782Z" fill="white"/>
<path d="M254.525 477.813C254.525 477.813 234.926 477.792 234.926 481.939C234.926 492.254 248.483 502.127 254.525 502.127L254.525 477.813Z" fill="black"/>
<path d="M298.916 149.937C345.439 166.9 363.844 175.362 406.133 195.22C415.078 191.963 366.309 38.3844 343.897 39.7518C321.485 41.1192 296.103 147.107 298.916 149.937Z" fill="white"/>
<path d="M341.992 367.273C331.898 375.906 319.796 389.067 310.953 400.338C301.967 411.791 296.346 421.293 299.616 422.111C300.603 421.562 307.538 416.56 317.507 409.234C349.26 385.899 411.798 338.979 411.012 337.183C409.98 334.823 362.344 349.868 341.992 367.273Z" fill="white"/>
<path d="M262.709 412.698L262.783 413.229C264.406 424.734 262.783 440.531 254.525 440.531L254.525 366.999C256.267 366.999 261.016 400.694 262.709 412.698Z" fill="#CF8B06"/>
<path d="M358.372 241.782C353.949 231.869 347.343 223.084 339.046 216.085C335.072 212.733 330.757 209.85 326.2 207.463C345.689 235.618 350.535 248.314 349.798 272.236C349.068 295.968 347.183 306.114 323.688 336.036C327.851 334.058 331.837 331.674 335.572 328.898C344.284 322.423 351.419 314.061 356.442 304.438C361.466 294.816 364.249 284.182 364.584 273.331C364.918 262.481 362.794 251.696 358.372 241.782Z" fill="#CF8B06"/>
<path fill-rule="evenodd" clip-rule="evenodd" d="M298.916 149.937C345.439 166.9 363.844 175.362 406.133 195.22C415.078 191.963 366.309 38.3844 343.897 39.7518C321.485 41.1192 296.103 147.107 298.916 149.937ZM310.953 400.338C319.796 389.067 331.898 375.906 341.992 367.273C362.344 349.868 409.98 334.823 411.012 337.183C411.798 338.979 349.26 385.899 317.507 409.234C307.538 416.56 300.603 421.562 299.616 422.111C296.346 421.293 301.967 411.791 310.953 400.338Z" fill="black"/>
<path d="M414.01 320.482C427.272 314.293 427.862 328.44 422.851 336.692C419.069 342.922 350.758 387.675 317.507 409.234C349.26 385.899 411.798 338.979 411.012 337.183C409.98 334.823 362.344 349.868 341.992 367.273C331.898 375.906 319.796 389.067 310.953 400.338C338.804 358.109 360.286 349.403 396.474 336.692C404.103 333.297 407.114 328.813 409.453 325.329C410.913 323.153 412.112 321.368 414.01 320.482Z" fill="#CF8B06"/>
<path d="M274.591 507.273C287.532 501.371 292.666 490.684 299.147 477.192C312.411 449.58 331.319 410.22 434.346 376.088L440.049 398.681C439.305 398.862 438.566 399.043 437.83 399.225C292.304 435.265 309.904 497.892 276.497 509.342C272.502 511.116 264.398 512 254.525 512V509.204C262.482 509.204 269.35 509.001 274.591 507.273Z" fill="#CF8B06"/>
<path fill-rule="evenodd" clip-rule="evenodd" d="M341.829 5.89644C341.469 5.8764 340.768 6.00426 339.642 6.76912C338.53 7.52412 337.229 8.74996 335.761 10.4986C332.828 13.9926 329.566 19.1654 326.113 25.5864C319.223 38.3973 311.841 55.6632 305.041 73.0659C298.251 90.4464 292.077 107.872 287.599 120.959C285.361 127.5 283.547 132.954 282.294 136.771C281.639 138.765 280.989 140.76 280.35 142.759C279.766 144.598 277.95 145.029 276.288 144.574C275.419 144.336 273.231 143.77 270.153 143.203C266.041 142.445 260.752 141.54 254.525 141.54V366.999C256.267 366.999 261.016 400.694 262.709 412.698L262.783 413.229C264.406 424.734 262.783 440.531 254.525 440.531V477.813C254.525 477.813 274.123 477.792 274.123 481.939C274.123 492.254 260.566 502.127 254.525 502.127V509.204C262.482 509.204 269.35 509.001 274.591 507.273C287.532 501.371 292.666 490.684 299.147 477.192C312.411 449.58 331.319 410.22 434.346 376.088C430.654 347.392 429.716 316.36 429.347 287.546C429.254 280.242 429.196 273.089 429.141 266.154L429.141 266.153L429.141 266.152L429.141 266.151C428.937 240.75 428.757 218.279 426.905 202.03C423.218 169.676 406.389 120.6 387.891 79.3377C378.656 58.7395 369.065 40.2207 360.581 26.8239C356.333 20.1148 352.42 14.7817 349.022 11.1274C347.323 9.29935 345.817 7.96255 344.526 7.0868C343.203 6.18911 342.322 5.92389 341.829 5.89644ZM406.133 195.22C363.844 175.362 345.439 166.9 298.916 149.937C296.103 147.107 321.485 41.1192 343.897 39.7518C366.309 38.3844 415.078 191.963 406.133 195.22ZM414.01 320.482C427.272 314.293 427.862 328.44 422.851 336.692C419.069 342.922 350.758 387.675 317.507 409.234C307.538 416.56 300.603 421.562 299.616 422.111C296.346 421.293 301.967 411.791 310.953 400.338C338.804 358.109 360.286 349.403 396.474 336.692C404.103 333.297 407.114 328.813 409.453 325.329C410.913 323.153 412.112 321.368 414.01 320.482ZM358.372 241.782C353.949 231.869 347.343 223.084 339.046 216.085C335.072 212.733 330.757 209.85 326.2 207.463C345.689 235.618 350.535 248.314 349.798 272.236C349.068 295.968 347.183 306.114 323.688 336.036C327.851 334.058 331.837 331.674 335.572 328.898C344.284 322.423 351.419 314.061 356.442 304.438C361.466 294.816 364.249 284.182 364.584 273.331C364.918 262.481 362.794 251.696 358.372 241.782Z" fill="white"/>
<path d="M254.525 477.813C254.525 477.813 274.123 477.792 274.123 481.939C274.123 492.254 260.566 502.127 254.525 502.127L254.525 477.813Z" fill="black"/>
<path d="M247.776 222.797C252.313 221.83 262.686 210.407 256.546 192.257C252.899 181.474 268.173 190.753 277.07 203.426C283.148 212.083 282.829 223.813 284.964 225.938C304.437 235.521 319.137 255.952 306.541 287.193C303.683 289.919 302.175 286.284 301.422 282.9C298.155 273.248 293.255 242.725 256.546 247.052C204.303 253.212 218.405 321.223 273.387 339.896C191.29 346.527 170.415 234.838 247.776 222.797Z" fill="#CF8B06"/>
</svg>
