<svg width="372" height="507" viewBox="0 0 372 507" fill="none" xmlns="http://www.w3.org/2000/svg">
<path fill-rule="evenodd" clip-rule="evenodd" d="M100.408 1.76912C99.2814 1.00426 98.5799 0.876396 98.2203 0.896437C97.7278 0.923885 96.8466 1.18911 95.5232 2.0868C88.6303 6.76235 83.8035 14.9769 79.4678 21.8239C70.9847 35.2207 61.3931 53.7395 52.1586 74.3377C33.66 115.6 16.831 164.676 13.1441 197.03C11.2925 213.279 11.1123 235.75 10.9087 261.151L10.9087 261.154C10.6147 297.832 10.3908 334.656 5.70374 371.088C108.73 405.22 127.638 444.58 140.902 472.192C147.383 485.684 152.517 496.371 165.458 502.273C170.7 504.001 177.567 504.204 185.525 504.204C193.482 504.204 200.35 504.001 205.591 502.273C218.532 496.371 223.666 485.684 230.147 472.192C243.411 444.58 262.319 405.22 365.346 371.088C360.659 334.656 360.435 297.832 360.141 261.154L360.141 261.151C359.937 235.75 359.757 213.279 357.905 197.03C354.218 164.676 337.389 115.6 318.891 74.3377C309.656 53.7395 300.065 35.2207 291.581 21.8239C287.246 14.9769 282.419 6.76235 275.526 2.0868C274.203 1.18911 273.322 0.923885 272.829 0.896437C272.469 0.876396 271.768 1.00426 270.642 1.76912C264.427 5.98899 260.531 14.2322 257.113 20.5864C237.369 57.2977 223.994 98.1971 211.35 137.759C210.766 139.598 208.95 140.029 207.288 139.574C200.265 137.651 192.797 136.54 185.525 136.54C178.252 136.54 170.784 137.651 163.761 139.574C162.099 140.029 160.284 139.598 159.699 137.759C147.055 98.1971 133.681 57.2977 113.936 20.5864C110.519 14.2322 106.623 5.98899 100.408 1.76912Z" fill="white"/>
<path d="M177.776 217.797C182.313 216.83 192.686 205.407 186.546 187.257C182.899 176.474 198.173 185.753 207.07 198.426C213.148 207.083 212.829 218.813 214.964 220.938C234.437 230.521 249.137 250.952 236.541 282.193C233.683 284.919 232.175 281.284 231.422 277.9C228.155 268.248 223.255 237.725 186.546 242.052C134.303 248.212 148.405 316.223 203.387 334.896C121.29 341.528 100.415 229.838 177.776 217.797Z" fill="#CF8B06"/>
<path d="M81.6775 236.782C86.0999 226.869 92.7065 218.084 101.003 211.085C104.977 207.733 109.292 204.85 113.849 202.463C94.3604 230.618 89.5142 243.314 90.2509 267.236C90.9816 290.968 92.866 301.114 116.362 331.036C112.198 329.058 108.213 326.674 104.477 323.898C95.7654 317.423 88.6308 309.061 83.6069 299.438C78.583 289.816 75.7999 279.182 75.4658 268.331C75.1316 257.481 77.2552 246.696 81.6775 236.782Z" fill="#CF8B06"/>
<path d="M289.372 236.782C284.949 226.869 278.343 218.084 270.046 211.085C266.072 207.733 261.757 204.85 257.2 202.463C276.689 230.618 281.535 243.314 280.798 267.236C280.068 290.968 278.183 301.114 254.688 331.036C258.851 329.058 262.837 326.674 266.572 323.898C275.284 317.423 282.419 309.061 287.442 299.438C292.466 289.816 295.249 279.182 295.584 268.331C295.918 257.481 293.794 246.696 289.372 236.782Z" fill="#CF8B06"/>
<path d="M141.134 144.937C94.6104 161.9 76.2057 170.362 33.9168 190.22C24.9712 186.963 73.7407 33.3844 96.1526 34.7518C118.565 36.1191 143.946 142.107 141.134 144.937Z" fill="white"/>
<path fill-rule="evenodd" clip-rule="evenodd" d="M141.134 144.937C94.6104 161.9 76.2057 170.362 33.9168 190.22C24.9712 186.963 73.7407 33.3844 96.1526 34.7518C118.565 36.1191 143.946 142.107 141.134 144.937Z" fill="black"/>
<path d="M229.916 144.937C276.439 161.9 294.843 170.362 337.132 190.22C346.078 186.963 297.309 33.3844 274.897 34.7518C252.485 36.1191 227.103 142.107 229.916 144.937Z" fill="white"/>
<path fill-rule="evenodd" clip-rule="evenodd" d="M229.916 144.937C276.439 161.9 294.843 170.362 337.132 190.22C346.078 186.963 297.309 33.3844 274.897 34.7518C252.485 36.1191 227.103 142.107 229.916 144.937Z" fill="black"/>
<path d="M98.0569 362.273C108.151 370.906 120.253 384.066 129.096 395.337C138.082 406.791 143.703 416.293 140.433 417.111C139.446 416.562 132.512 411.56 122.542 404.234C90.7898 380.899 28.2513 333.979 29.037 332.183C30.0693 329.823 77.7049 344.868 98.0569 362.273Z" fill="black"/>
<path d="M272.992 362.273C262.898 370.906 250.796 384.066 241.953 395.337C232.967 406.791 227.346 416.293 230.616 417.111C231.603 416.562 238.538 411.56 248.507 404.234C280.26 380.899 342.798 333.979 342.012 332.183C340.98 329.823 293.344 344.868 272.992 362.273Z" fill="black"/>
<path d="M26.0396 315.482C12.7773 309.293 12.1878 323.44 17.198 331.692C20.9805 337.922 89.2917 382.675 122.542 404.234C90.7898 380.899 28.2514 333.979 29.037 332.183C30.0694 329.823 77.7049 344.868 98.0569 362.273C108.151 370.906 120.253 384.066 129.096 395.337C101.246 353.109 79.7631 344.402 43.5752 331.692C35.9464 328.297 32.9356 323.813 30.5967 320.329C29.136 318.153 27.9374 316.368 26.0396 315.482Z" fill="#CF8B06"/>
<path d="M345.01 315.482C358.272 309.293 358.862 323.44 353.851 331.692C350.069 337.922 281.758 382.675 248.507 404.234C280.26 380.899 342.798 333.979 342.012 332.183C340.98 329.823 293.344 344.868 272.992 362.273C262.898 370.906 250.796 384.066 241.953 395.337C269.804 353.109 291.286 344.402 327.474 331.692C335.103 328.297 338.114 323.813 340.453 320.329C341.913 318.153 343.112 316.368 345.01 315.482Z" fill="#CF8B06"/>
<path d="M177.341 407.698L177.341 407.698C176.431 414.15 174.639 435.531 185.525 435.531C196.41 435.531 194.618 414.15 193.709 407.698C192.016 395.694 187.266 361.999 185.525 361.999C183.783 361.999 179.033 395.694 177.341 407.698Z" fill="#CF8B06"/>
<path d="M165.926 476.939C165.926 472.792 185.525 472.813 185.525 472.813C185.525 472.813 205.123 472.792 205.123 476.939C205.123 487.254 191.566 497.127 185.525 497.127C179.483 497.127 165.926 487.254 165.926 476.939Z" fill="black"/>
<path d="M185.525 504.204C177.567 504.204 170.7 504.001 165.458 502.273C152.517 496.371 147.383 485.684 140.902 472.192C127.638 444.58 108.73 405.22 5.70373 371.088L0 393.681C147.925 429.631 129.976 492.834 163.552 504.342C167.547 506.116 175.652 507 185.525 507C195.398 507 203.502 506.116 207.497 504.342C241.073 492.834 223.124 429.631 371.049 393.681L365.346 371.088C262.319 405.22 243.411 444.58 230.147 472.192C223.666 485.684 218.532 496.371 205.591 502.273C200.35 504.001 193.482 504.204 185.525 504.204Z" fill="#CF8B06"/>
</svg>
