<svg width="347" height="507" viewBox="0 0 347 507" fill="none" xmlns="http://www.w3.org/2000/svg">
<path d="M116.734 246.655C129.869 260.655 143.234 266.655 145.734 273.655C148.234 280.655 148.734 289.655 136.234 279.655C123.734 269.655 116.734 246.655 116.734 246.655Z" fill="#CF063A"/>
<path d="M85.2341 400.655C70.7341 383.155 51.2341 369.655 47.2341 369.155C43.2341 368.655 47.2341 377.655 51.2341 383.155C55.2341 388.655 71.7781 387.655 85.2341 400.655Z" fill="#CF063A"/>
<path d="M110.734 180.155C92.7341 190.155 79.0449 210.601 56.8888 236.155C54.8888 196.655 65.2414 83.0249 90.4935 52.3943C94.0036 67.6858 101.235 152.59 110.734 180.155Z" fill="#11111F"/>
<path d="M230.054 246.655C216.919 260.655 203.554 266.655 201.054 273.655C198.554 280.655 198.054 289.655 210.554 279.655C223.054 269.655 230.054 246.655 230.054 246.655Z" fill="#CF063A"/>
<path d="M261.554 400.655C276.054 383.155 295.554 369.655 299.554 369.155C303.554 368.655 299.554 377.655 295.554 383.155C291.554 388.655 275.01 387.655 261.554 400.655Z" fill="#CF063A"/>
<path d="M236.054 180.155C254.054 190.155 267.743 210.601 289.9 236.155C291.9 196.655 281.547 83.0249 256.295 52.3943C252.785 67.6858 245.553 152.59 236.054 180.155Z" fill="#11111F"/>
<path d="M173.394 214.189C181.862 214.5 191.684 221.374 189.054 237.155C186.434 252.874 179.743 258.458 173.394 293.261C167.046 258.458 160.354 252.874 157.734 237.155C155.104 221.374 165.5 214.5 173.394 214.189Z" fill="#CF063A"/>
<path fill-rule="evenodd" clip-rule="evenodd" d="M22.0434 308.401C22.4565 317.331 23.2067 325.922 24.2623 334.183C15.6893 364.373 0.503474 382.612 0.00347423 396.481C-0.496526 410.351 53.1043 448.742 75.3038 464.621C97.4313 480.448 138.56 506.006 173.394 506.991C208.228 506.015 249.357 480.448 271.484 464.621C293.684 448.742 347.285 410.351 346.785 396.481C346.285 382.612 331.099 364.373 322.526 334.183C323.582 325.922 324.332 317.331 324.745 308.401C324.893 305.211 324.747 284.703 322.256 265.096C325.395 195.562 310.79 59.9652 263.659 4.21924C259.257 -0.987252 250.878 -2.23951 248.637 5.46104C240.498 30.9409 224.188 136.315 215.201 167.411C201.359 165.928 187.312 165.674 173.394 165.655C159.477 165.674 145.429 165.928 131.587 167.411C122.6 136.315 106.29 30.9409 98.1509 5.46104C95.9103 -2.23951 87.5309 -0.987252 83.1292 4.21924C35.9985 59.9652 21.3938 195.562 24.5322 265.096C22.0412 284.703 21.8957 305.211 22.0434 308.401ZM88.3222 8.91924C42.6373 63.0617 28.4015 196.836 31.5386 265.079C31.5479 265.281 31.5396 265.484 31.5139 265.685C29.1146 284.379 28.9172 304.005 29.0245 307.762C30.9697 315.725 35.0704 325.497 41.7137 330.761C51.2342 339.655 68.7554 346.494 80.6251 356.584C85.6686 360.871 101.734 376.655 109.299 396.481C81.2342 369.655 70.2809 368.019 63.6854 364.218L63.6845 364.217C62.3907 363.471 61.0913 362.723 59.7883 361.966C50.6664 356.668 41.3701 350.983 32.6253 343.325C14.6712 377.675 6.00347 390.345 7.00347 395.5C19.0035 418.5 51.9512 439.393 80.6251 460.197C109.199 480.927 141.081 499.107 173.394 499.991C205.707 499.107 237.59 480.927 266.163 460.197C294.837 439.393 327.785 418.5 339.785 395.5C340.785 390.345 332.117 377.675 314.163 343.325C304.169 352.077 293.454 358.252 283.103 364.218C276.507 368.019 265.554 369.655 237.489 396.481C245.054 376.655 261.12 360.871 266.163 356.584C278.033 346.494 295.554 339.655 305.075 330.761C311.718 325.497 315.819 315.725 317.764 307.762C317.871 304.005 317.674 284.379 315.274 265.685C315.249 265.484 315.24 265.281 315.25 265.079C318.387 196.836 304.151 63.0617 258.466 8.91924C257.315 7.8911 256.45 7.31288 255.845 7.01265C255.421 6.80241 255.418 7.23973 255.321 7.54375C246.784 34.2737 230.022 140.74 221.113 172.193C220.639 173.867 219.008 174.939 217.283 174.709C202.825 172.78 187.976 172.658 173.394 172.656C158.813 172.658 143.963 172.78 129.505 174.709C127.781 174.939 126.149 173.867 125.675 172.193C116.766 140.74 100.004 34.2737 91.4678 7.54375C91.3706 7.23973 91.3673 6.80241 90.9435 7.01265C90.3385 7.31288 89.4733 7.8911 88.3222 8.91924Z" fill="#CF063A"/>
<path d="M98.0863 443.418C115.964 460.276 131.138 465.102 143.733 464.621C154.127 464.223 164.676 459.952 173.394 454.395C182.113 459.952 192.662 464.223 203.055 464.621C215.651 465.102 230.824 460.276 248.702 443.418C253.612 439.678 262.938 434.541 263.962 427.617C264.445 424.353 261.734 420.939 258.904 419.55C256.624 418.432 254.831 419.895 253.853 421.922C250.826 428.19 249.378 435.507 247.185 442.1C229.661 458.572 215.034 463.077 203.131 462.622C191.42 462.174 181.126 456.932 174.054 453.062V428.292C177.709 425.117 183.382 423.553 187.643 421.407C191.978 419.224 195.826 416.396 197.035 410.351C197.384 408.603 196.871 406.9 195.308 405.936C193.97 405.111 192.03 404.813 189.905 404.718C184.399 404.474 178.9 405.155 173.394 405.155C167.889 405.155 162.389 404.474 156.883 404.718C154.759 404.813 152.819 405.111 151.48 405.936C149.917 406.9 149.404 408.603 149.754 410.351C150.962 416.396 154.81 419.224 159.145 421.407C163.406 423.553 169.079 425.117 172.734 428.292V453.062C165.662 456.932 155.368 462.174 143.657 462.622C131.754 463.077 117.127 458.572 99.6033 442.1C97.4107 435.507 95.9622 428.19 92.9357 421.922C91.957 419.895 90.1648 418.432 87.8844 419.55C85.0544 420.939 82.3431 424.353 82.8261 427.617C83.8505 434.541 93.1761 439.678 98.0863 443.418Z" fill="#CF063A"/>
<path fill-rule="evenodd" clip-rule="evenodd" d="M31.5386 265.079C28.4015 196.836 42.6373 63.0617 88.3222 8.91924C89.4733 7.8911 90.3385 7.31288 90.9435 7.01265C91.3673 6.80241 91.3706 7.23973 91.4678 7.54375C100.004 34.2737 116.766 140.74 125.675 172.193C126.149 173.867 127.781 174.939 129.505 174.709C143.963 172.78 158.813 172.658 173.394 172.656C187.976 172.658 202.825 172.78 217.283 174.709C219.008 174.939 220.639 173.867 221.113 172.193C230.022 140.74 246.784 34.2737 255.321 7.54375C255.418 7.23973 255.421 6.80241 255.845 7.01265C256.45 7.31288 257.315 7.8911 258.466 8.91924C304.151 63.0617 318.387 196.836 315.25 265.079C315.24 265.281 315.249 265.484 315.274 265.685C317.674 284.379 317.871 304.005 317.764 307.762C315.819 315.725 311.718 325.497 305.075 330.761C295.554 339.655 278.033 346.494 266.163 356.584C261.12 360.871 245.054 376.655 237.489 396.481C265.554 369.655 276.507 368.019 283.103 364.218C293.454 358.252 304.169 352.077 314.163 343.325C332.117 377.675 340.785 390.345 339.785 395.5C327.785 418.5 294.837 439.393 266.163 460.197C237.59 480.927 205.707 499.107 173.394 499.991C141.081 499.107 109.199 480.927 80.6251 460.197C51.9512 439.393 19.0035 418.5 7.00347 395.5C6.00347 390.345 14.6712 377.675 32.6253 343.325C41.3701 350.983 50.6664 356.668 59.7883 361.966C61.0913 362.723 62.3907 363.471 63.6845 364.217L63.6854 364.218C70.2809 368.019 81.2342 369.655 109.299 396.481C101.734 376.655 85.6686 360.871 80.6251 356.584C68.7554 346.494 51.2342 339.655 41.7137 330.761C35.0704 325.497 30.9697 315.725 29.0245 307.762C28.9172 304.005 29.1146 284.379 31.5139 265.685C31.5396 265.484 31.5479 265.281 31.5386 265.079ZM145.734 273.655C143.234 266.655 129.869 260.655 116.734 246.655C116.734 246.655 123.734 269.655 136.234 279.655C148.734 289.655 148.234 280.655 145.734 273.655ZM143.733 464.621C131.138 465.102 115.964 460.276 98.0863 443.418C93.1761 439.678 83.8505 434.541 82.8261 427.617C82.3431 424.353 85.0544 420.939 87.8844 419.55C90.1648 418.432 91.957 419.895 92.9357 421.922C95.9622 428.19 97.4107 435.507 99.6033 442.1C117.127 458.572 131.754 463.077 143.657 462.622C155.368 462.174 165.662 456.932 172.734 453.062V428.292C169.079 425.117 163.406 423.553 159.145 421.407C154.81 419.224 150.962 416.396 149.754 410.351C149.404 408.603 149.917 406.9 151.48 405.936C152.819 405.111 154.759 404.813 156.883 404.718C162.389 404.474 167.889 405.155 173.394 405.155C178.9 405.155 184.399 404.474 189.905 404.718C192.03 404.813 193.97 405.111 195.308 405.936C196.871 406.9 197.384 408.603 197.035 410.351C195.826 416.396 191.978 419.224 187.643 421.407C183.382 423.553 177.709 425.117 174.054 428.292V453.062C181.126 456.932 191.42 462.174 203.131 462.622C215.034 463.077 229.661 458.572 247.185 442.1C249.378 435.507 250.826 428.19 253.853 421.922C254.831 419.895 256.624 418.432 258.904 419.55C261.734 420.939 264.445 424.353 263.962 427.617C262.938 434.541 253.612 439.678 248.702 443.418C230.824 460.276 215.651 465.102 203.055 464.621C192.662 464.223 182.113 459.952 173.394 454.395C164.676 459.952 154.127 464.223 143.733 464.621ZM85.2341 400.655C70.7341 383.155 51.2341 369.655 47.2341 369.155C43.2341 368.655 47.2341 377.655 51.2341 383.155C55.2341 388.655 71.7781 387.655 85.2341 400.655ZM110.734 180.155C92.7341 190.155 79.0449 210.601 56.8888 236.155C54.8888 196.655 65.2414 83.0249 90.4935 52.3943C94.0036 67.6858 101.235 152.59 110.734 180.155ZM101.234 307.155C121.734 319.303 136.234 341.5 145.734 387.5C134.518 341.561 80.8769 318.716 50.8538 305.929L50.7341 305.878C50.7341 305.878 81.7442 295.605 101.234 307.155ZM201.054 273.655C203.554 266.655 216.919 260.655 230.054 246.655C230.054 246.655 223.054 269.655 210.554 279.655C198.054 289.655 198.554 280.655 201.054 273.655ZM261.554 400.655C276.054 383.155 295.554 369.655 299.554 369.155C303.554 368.655 299.554 377.655 295.554 383.155C291.554 388.655 275.01 387.655 261.554 400.655ZM236.054 180.155C254.054 190.155 267.743 210.601 289.9 236.155C291.9 196.655 281.547 83.0249 256.295 52.3943C252.785 67.6858 245.553 152.59 236.054 180.155ZM245.554 307.155C225.054 319.303 210.554 341.5 201.054 387.5C212.27 341.561 265.911 318.716 295.935 305.929L296.054 305.878C296.054 305.878 265.044 295.605 245.554 307.155ZM189.054 237.155C191.684 221.374 181.862 214.5 173.394 214.189C165.5 214.5 155.104 221.374 157.734 237.155C160.354 252.874 167.046 258.458 173.394 293.261C179.743 258.458 186.434 252.874 189.054 237.155Z" fill="white"/>
<path d="M201.054 387.5C210.554 341.5 225.054 319.303 245.554 307.155C265.044 295.605 296.054 305.878 296.054 305.878L295.935 305.929C265.911 318.716 212.27 341.561 201.054 387.5Z" fill="#11111F"/>
<path d="M145.734 387.5C136.234 341.5 121.734 319.303 101.234 307.155C81.7442 295.605 50.7341 305.878 50.7341 305.878L50.8538 305.929C80.8769 318.716 134.518 341.561 145.734 387.5Z" fill="#11111F"/>
</svg>
